<svg viewBox="0 0 40 40" fill="none" xmlns="http://www.w3.org/2000/svg">
<path d="M21.7914 24.6683C20.3417 22.7604 17.0801 22.7909 14.5197 24.7364C11.9594 26.6817 11.0555 29.8164 12.5051 31.7242C13.9543 33.6316 17.2166 33.6008 19.777 31.6554C22.3374 29.71 23.2407 26.5756 21.7914 24.6683Z" fill="url(#paint0_linear_644_31)"/>
<path d="M18.5108 10.98C18.4681 11.1244 18.4286 11.2617 18.3779 11.3576C17.3098 13.3894 16.9688 16.9932 19.5306 20.4656L19.6303 20.5983C22.2006 23.981 25.6486 24.681 28.0194 24.2078C28.1007 24.1919 28.2262 24.1975 28.3589 24.2036C28.5151 24.2114 28.6728 24.2168 28.8302 24.2042C30.4773 24.0747 31.9989 23.4907 33.1138 22.5592C34.2979 21.571 34.893 20.3086 34.791 19.0075C34.7495 18.482 34.5743 18.0141 34.2705 17.6143C33.6441 16.7899 32.6063 16.3879 31.4039 15.9219C30.6386 15.6262 29.8485 15.3205 29.099 14.8835C29.0211 14.8299 28.7625 14.5643 28.3984 14.0851C27.9654 13.5152 27.7051 13.0675 27.6689 12.9571C27.4706 12.1254 27.4157 11.3043 27.3618 10.5108C27.2801 9.29354 27.2027 8.14446 26.5714 7.31357C26.3004 6.95699 25.9437 6.68288 25.5107 6.49756C23.1218 5.47521 20.0574 7.26311 18.6796 10.4824C18.6104 10.644 18.5594 10.8126 18.5108 10.98Z" fill="url(#paint1_linear_644_31)"/>
<path d="M16.2019 17.3132C14.7529 15.4063 11.491 15.4364 8.93058 17.3819C6.37033 19.3272 5.46659 22.4622 6.91555 24.3692C8.36536 26.2773 11.6275 26.2463 14.1878 24.301C16.7483 22.3555 17.6517 19.2213 16.2019 17.3132Z" fill="url(#paint2_linear_644_31)"/>
<path d="M9.50046 13.4427C10.6623 14.9717 13.1574 14.9635 15.1819 13.4253C17.2054 11.8878 17.8815 9.48525 16.7203 7.95688C15.5591 6.42864 13.0627 6.43552 11.0391 7.97307C9.01472 9.51126 8.33871 11.9137 9.50046 13.4427Z" fill="url(#paint3_linear_644_31)"/>
<path d="M25.0455 26.4089C23.021 27.9471 22.345 30.3495 23.5064 31.8779C24.6677 33.4064 27.1636 33.399 29.188 31.8608C31.2115 30.3233 31.8875 27.9206 30.7262 26.3921C29.5648 24.8636 27.069 24.8713 25.0455 26.4089Z" fill="url(#paint4_linear_644_31)"/>
<defs>
<linearGradient id="paint0_linear_644_31" x1="10.9966" y1="27.7543" x2="21.1423" y2="33.1885" gradientUnits="userSpaceOnUse">
<stop stop-color="#2DA2EC" stop-opacity="0.49"/>
</linearGradient>
<linearGradient id="paint1_linear_644_31" x1="15.2463" y1="12.5204" x2="36.0617" y2="16.7325" gradientUnits="userSpaceOnUse">
<stop stop-color="#2DA2EC" stop-opacity="0.49"/>
</linearGradient>
<linearGradient id="paint2_linear_644_31" x1="5.40752" y1="20.3999" x2="15.5532" y2="25.834" gradientUnits="userSpaceOnUse">
<stop stop-color="#2DA2EC" stop-opacity="0.49"/>
</linearGradient>
<linearGradient id="paint3_linear_644_31" x1="8.30161" y1="10.3219" x2="16.2993" y2="14.553" gradientUnits="userSpaceOnUse">
<stop stop-color="#2DA2EC" stop-opacity="0.49"/>
</linearGradient>
<linearGradient id="paint4_linear_644_31" x1="22.3079" y1="28.7576" x2="30.3053" y2="32.9888" gradientUnits="userSpaceOnUse">
<stop stop-color="#2DA2EC" stop-opacity="0.49"/>
</linearGradient>
</defs>
</svg>
